<?xml version="1.0" encoding="UTF-8" standalone="no"?>
<svg
   viewBox="0 0 64 64"
   version="1.1"
   id="svg1"
   sodipodi:docname="favicon.svg"
   inkscape:version="1.4.3 (0d15f75, 2025-12-25)"
   xmlns:inkscape="http://www.inkscape.org/namespaces/inkscape"
   xmlns:sodipodi="http://sodipodi.sourceforge.net/DTD/sodipodi-0.dtd"
   xmlns="http://www.w3.org/2000/svg"
   xmlns:svg="http://www.w3.org/2000/svg">
  <defs
     id="defs1" />
  <sodipodi:namedview
     id="namedview1"
     pagecolor="#ffffff"
     bordercolor="#000000"
     borderopacity="0.25"
     inkscape:showpageshadow="2"
     inkscape:pageopacity="0.0"
     inkscape:pagecheckerboard="0"
     inkscape:deskcolor="#d1d1d1"
     inkscape:zoom="3.6811582"
     inkscape:cx="19.559062"
     inkscape:cy="29.066939"
     inkscape:window-width="1512"
     inkscape:window-height="847"
     inkscape:window-x="0"
     inkscape:window-y="33"
     inkscape:window-maximized="1"
     inkscape:current-layer="svg1" />
  <polygon
     points="6,46 6,18 32,4 58,18 58,46 32,60 "
     fill="none"
     stroke="#5DADE2"
     stroke-width="7"
     stroke-linejoin="round"
     id="polygon1"
     style="stroke:#3b82f6;stroke-width:9.77323;stroke-linejoin:miter;stroke-dasharray:none;stroke-opacity:1"
     transform="matrix(0.92114114,0,0,0.92062507,2.5234835,2.5399978)" />
  <path
     style="font-weight:bold;font-size:37.3333px;line-height:43.5995px;font-family:'Roboto Mono';-inkscape-font-specification:'Roboto Mono';letter-spacing:0.32px;fill:#3b82f6;fill-rule:evenodd;stroke-width:9;stroke-linecap:round"
     d="m 29.776043,37.295567 h 4.557288 q 0,-0.729166 0.03646,-1.239582 0.03646,-0.528646 0.182291,-0.966145 0.127604,-0.4375 0.4375,-0.85677 0.309895,-0.419271 0.85677,-0.966145 0.893228,-0.783854 1.768227,-1.604166 0.893229,-0.838541 1.585937,-1.768227 0.692707,-0.911458 1.130207,-1.968749 0.4375,-1.07552 0.4375,-2.369789 0,-1.749999 -0.583333,-3.080727 -0.583333,-1.330728 -1.677082,-2.242185 -1.111978,-0.893229 -2.716144,-1.348958 -1.604165,-0.455728 -3.627601,-0.455728 -1.804686,0 -3.354164,0.455728 -1.549477,0.4375 -2.697914,1.348958 -1.148436,0.911457 -1.822915,2.296873 -0.674479,1.367186 -0.692708,3.226559 h 5.085933 q 0.01823,-0.838541 0.309896,-1.440103 0.309896,-0.601562 0.802083,-0.984374 0.473958,-0.382812 1.093749,-0.546874 0.619791,-0.182292 1.27604,-0.182292 0.838541,0 1.476562,0.182292 0.656249,0.182291 1.111978,0.546874 0.437499,0.401042 0.674478,1.020833 0.236979,0.601562 0.236979,1.440103 0,0.692707 -0.309895,1.385415 -0.309896,0.692708 -0.802083,1.348957 -0.510416,0.674479 -1.130207,1.312499 -0.619791,0.619791 -1.239583,1.184895 -0.85677,0.674479 -1.330728,1.276041 -0.473958,0.583332 -0.710937,1.27604 -0.236978,0.710937 -0.309895,1.585936 -0.05469,0.875 -0.05469,2.132811 z M 29.028648,42.819 q 0,1.166666 0.783854,1.968748 0.783853,0.783854 2.169269,0.783854 1.348957,0 2.15104,-0.783854 0.820311,-0.802082 0.820311,-1.968748 0,-1.203124 -0.820311,-2.005207 -0.802083,-0.820312 -2.15104,-0.820312 -1.385416,0 -2.169269,0.820312 -0.783854,0.802083 -0.783854,2.005207 z"
     id="text1"
     aria-label="?" />
</svg>
